<mxfile host="Electron" modified="2023-09-30T19:30:16.855Z" agent="Mozilla/5.0 (Windows NT 10.0; Win64; x64) AppleWebKit/537.36 (KHTML, like Gecko) draw.io/22.0.0 Chrome/114.0.5735.289 Electron/25.8.3 Safari/537.36" etag="MSGcMsRZ5iH-hMYiNvXt" version="22.0.0" type="device" pages="2">
  <diagram name="Страница 1" id="lYRqlXPRjD7oZUD2fvAM">
    <mxGraphModel dx="1050" dy="638" grid="1" gridSize="10" guides="1" tooltips="1" connect="1" arrows="1" fold="1" page="1" pageScale="1" pageWidth="4681" pageHeight="3300" math="0" shadow="0">
      <root>
        <mxCell id="0" />
        <mxCell id="1" parent="0" />
        <mxCell id="hI0eASJu8NWuojaoVqL7-36" value="" style="rounded=1;whiteSpace=wrap;html=1;" parent="1" vertex="1">
          <mxGeometry x="200" y="580" width="340" height="210" as="geometry" />
        </mxCell>
        <mxCell id="hI0eASJu8NWuojaoVqL7-51" value="" style="rounded=1;whiteSpace=wrap;html=1;" parent="1" vertex="1">
          <mxGeometry x="200" y="840" width="340" height="210" as="geometry" />
        </mxCell>
        <mxCell id="hI0eASJu8NWuojaoVqL7-27" value="" style="rounded=1;whiteSpace=wrap;html=1;" parent="1" vertex="1">
          <mxGeometry x="200" y="320" width="340" height="210" as="geometry" />
        </mxCell>
        <mxCell id="Vq4K0YUKN7Iw1aO_rO88-1" value="LinkedList" style="swimlane;fontStyle=0;childLayout=stackLayout;horizontal=1;startSize=26;fillColor=none;horizontalStack=0;resizeParent=1;resizeParentMax=0;resizeLast=0;collapsible=1;marginBottom=0;" parent="1" vertex="1">
          <mxGeometry x="840" width="160" height="130" as="geometry">
            <mxRectangle x="80" y="40" width="160" height="30" as="alternateBounds" />
          </mxGeometry>
        </mxCell>
        <mxCell id="Vq4K0YUKN7Iw1aO_rO88-2" value="head" style="text;strokeColor=none;fillColor=none;align=left;verticalAlign=top;spacingLeft=4;spacingRight=4;overflow=hidden;rotatable=0;points=[[0,0.5],[1,0.5]];portConstraint=eastwest;" parent="Vq4K0YUKN7Iw1aO_rO88-1" vertex="1">
          <mxGeometry y="26" width="160" height="26" as="geometry" />
        </mxCell>
        <mxCell id="Vq4K0YUKN7Iw1aO_rO88-3" value="tail" style="text;strokeColor=none;fillColor=none;align=left;verticalAlign=top;spacingLeft=4;spacingRight=4;overflow=hidden;rotatable=0;points=[[0,0.5],[1,0.5]];portConstraint=eastwest;" parent="Vq4K0YUKN7Iw1aO_rO88-1" vertex="1">
          <mxGeometry y="52" width="160" height="26" as="geometry" />
        </mxCell>
        <mxCell id="Vq4K0YUKN7Iw1aO_rO88-4" value="+ add_obj(self, obj)" style="text;strokeColor=none;fillColor=none;align=left;verticalAlign=top;spacingLeft=4;spacingRight=4;overflow=hidden;rotatable=0;points=[[0,0.5],[1,0.5]];portConstraint=eastwest;" parent="Vq4K0YUKN7Iw1aO_rO88-1" vertex="1">
          <mxGeometry y="78" width="160" height="26" as="geometry" />
        </mxCell>
        <mxCell id="Vq4K0YUKN7Iw1aO_rO88-5" value="+ remove_obj(self)" style="text;strokeColor=none;fillColor=none;align=left;verticalAlign=top;spacingLeft=4;spacingRight=4;overflow=hidden;rotatable=0;points=[[0,0.5],[1,0.5]];portConstraint=eastwest;" parent="Vq4K0YUKN7Iw1aO_rO88-1" vertex="1">
          <mxGeometry y="104" width="160" height="26" as="geometry" />
        </mxCell>
        <mxCell id="Vq4K0YUKN7Iw1aO_rO88-6" value="ObjList" style="swimlane;fontStyle=0;childLayout=stackLayout;horizontal=1;startSize=26;fillColor=none;horizontalStack=0;resizeParent=1;resizeParentMax=0;resizeLast=0;collapsible=1;marginBottom=0;" parent="1" vertex="1">
          <mxGeometry x="1040" width="160" height="260" as="geometry">
            <mxRectangle x="320" y="40" width="160" height="30" as="alternateBounds" />
          </mxGeometry>
        </mxCell>
        <mxCell id="Vq4K0YUKN7Iw1aO_rO88-7" value="__prev" style="text;strokeColor=none;fillColor=none;align=left;verticalAlign=top;spacingLeft=4;spacingRight=4;overflow=hidden;rotatable=0;points=[[0,0.5],[1,0.5]];portConstraint=eastwest;" parent="Vq4K0YUKN7Iw1aO_rO88-6" vertex="1">
          <mxGeometry y="26" width="160" height="26" as="geometry" />
        </mxCell>
        <mxCell id="Vq4K0YUKN7Iw1aO_rO88-8" value="__next" style="text;strokeColor=none;fillColor=none;align=left;verticalAlign=top;spacingLeft=4;spacingRight=4;overflow=hidden;rotatable=0;points=[[0,0.5],[1,0.5]];portConstraint=eastwest;" parent="Vq4K0YUKN7Iw1aO_rO88-6" vertex="1">
          <mxGeometry y="52" width="160" height="26" as="geometry" />
        </mxCell>
        <mxCell id="Vq4K0YUKN7Iw1aO_rO88-9" value="__data" style="text;strokeColor=none;fillColor=none;align=left;verticalAlign=top;spacingLeft=4;spacingRight=4;overflow=hidden;rotatable=0;points=[[0,0.5],[1,0.5]];portConstraint=eastwest;" parent="Vq4K0YUKN7Iw1aO_rO88-6" vertex="1">
          <mxGeometry y="78" width="160" height="26" as="geometry" />
        </mxCell>
        <mxCell id="Vq4K0YUKN7Iw1aO_rO88-10" value="+ set_next(self, obj)" style="text;strokeColor=none;fillColor=none;align=left;verticalAlign=top;spacingLeft=4;spacingRight=4;overflow=hidden;rotatable=0;points=[[0,0.5],[1,0.5]];portConstraint=eastwest;" parent="Vq4K0YUKN7Iw1aO_rO88-6" vertex="1">
          <mxGeometry y="104" width="160" height="26" as="geometry" />
        </mxCell>
        <mxCell id="Vq4K0YUKN7Iw1aO_rO88-11" value="+ set_prev(self, obj)" style="text;strokeColor=none;fillColor=none;align=left;verticalAlign=top;spacingLeft=4;spacingRight=4;overflow=hidden;rotatable=0;points=[[0,0.5],[1,0.5]];portConstraint=eastwest;" parent="Vq4K0YUKN7Iw1aO_rO88-6" vertex="1">
          <mxGeometry y="130" width="160" height="26" as="geometry" />
        </mxCell>
        <mxCell id="Vq4K0YUKN7Iw1aO_rO88-12" value="+ get_next(self)" style="text;strokeColor=none;fillColor=none;align=left;verticalAlign=top;spacingLeft=4;spacingRight=4;overflow=hidden;rotatable=0;points=[[0,0.5],[1,0.5]];portConstraint=eastwest;" parent="Vq4K0YUKN7Iw1aO_rO88-6" vertex="1">
          <mxGeometry y="156" width="160" height="26" as="geometry" />
        </mxCell>
        <mxCell id="Vq4K0YUKN7Iw1aO_rO88-13" value="+ get_prev(self)" style="text;strokeColor=none;fillColor=none;align=left;verticalAlign=top;spacingLeft=4;spacingRight=4;overflow=hidden;rotatable=0;points=[[0,0.5],[1,0.5]];portConstraint=eastwest;" parent="Vq4K0YUKN7Iw1aO_rO88-6" vertex="1">
          <mxGeometry y="182" width="160" height="26" as="geometry" />
        </mxCell>
        <mxCell id="Vq4K0YUKN7Iw1aO_rO88-14" value="+ sset_data(self, data)" style="text;strokeColor=none;fillColor=none;align=left;verticalAlign=top;spacingLeft=4;spacingRight=4;overflow=hidden;rotatable=0;points=[[0,0.5],[1,0.5]];portConstraint=eastwest;" parent="Vq4K0YUKN7Iw1aO_rO88-6" vertex="1">
          <mxGeometry y="208" width="160" height="26" as="geometry" />
        </mxCell>
        <mxCell id="Vq4K0YUKN7Iw1aO_rO88-15" value="+ get_data(self)" style="text;strokeColor=none;fillColor=none;align=left;verticalAlign=top;spacingLeft=4;spacingRight=4;overflow=hidden;rotatable=0;points=[[0,0.5],[1,0.5]];portConstraint=eastwest;" parent="Vq4K0YUKN7Iw1aO_rO88-6" vertex="1">
          <mxGeometry y="234" width="160" height="26" as="geometry" />
        </mxCell>
        <mxCell id="hI0eASJu8NWuojaoVqL7-58" style="edgeStyle=orthogonalEdgeStyle;rounded=0;orthogonalLoop=1;jettySize=auto;html=1;entryX=0;entryY=0.5;entryDx=0;entryDy=0;" parent="1" source="hI0eASJu8NWuojaoVqL7-2" target="hI0eASJu8NWuojaoVqL7-4" edge="1">
          <mxGeometry relative="1" as="geometry" />
        </mxCell>
        <mxCell id="hI0eASJu8NWuojaoVqL7-59" style="edgeStyle=orthogonalEdgeStyle;rounded=0;orthogonalLoop=1;jettySize=auto;html=1;" parent="1" source="hI0eASJu8NWuojaoVqL7-2" target="hI0eASJu8NWuojaoVqL7-20" edge="1">
          <mxGeometry relative="1" as="geometry" />
        </mxCell>
        <mxCell id="hI0eASJu8NWuojaoVqL7-2" value="Object" style="html=1;whiteSpace=wrap;" parent="1" vertex="1">
          <mxGeometry x="255" y="400" width="110" height="50" as="geometry" />
        </mxCell>
        <mxCell id="hI0eASJu8NWuojaoVqL7-4" value="head" style="html=1;whiteSpace=wrap;" parent="1" vertex="1">
          <mxGeometry x="410" y="355" width="110" height="50" as="geometry" />
        </mxCell>
        <mxCell id="hI0eASJu8NWuojaoVqL7-13" value="&lt;span style=&quot;color: rgb(0, 0, 0); font-family: Helvetica; font-size: 12px; font-style: normal; font-variant-ligatures: normal; font-variant-caps: normal; font-weight: 400; letter-spacing: normal; orphans: 2; text-align: center; text-indent: 0px; text-transform: none; widows: 2; word-spacing: 0px; -webkit-text-stroke-width: 0px; background-color: rgb(251, 251, 251); text-decoration-thickness: initial; text-decoration-style: initial; text-decoration-color: initial; float: none; display: inline !important;&quot;&gt;ObjList&lt;/span&gt;" style="text;whiteSpace=wrap;html=1;" parent="1" vertex="1">
          <mxGeometry x="290" y="370" width="40" height="20" as="geometry" />
        </mxCell>
        <mxCell id="hI0eASJu8NWuojaoVqL7-20" value="tail" style="html=1;whiteSpace=wrap;" parent="1" vertex="1">
          <mxGeometry x="410" y="435" width="110" height="50" as="geometry" />
        </mxCell>
        <mxCell id="hI0eASJu8NWuojaoVqL7-60" style="edgeStyle=orthogonalEdgeStyle;rounded=0;orthogonalLoop=1;jettySize=auto;html=1;entryX=0;entryY=0.5;entryDx=0;entryDy=0;" parent="1" source="hI0eASJu8NWuojaoVqL7-40" target="hI0eASJu8NWuojaoVqL7-44" edge="1">
          <mxGeometry relative="1" as="geometry" />
        </mxCell>
        <mxCell id="hI0eASJu8NWuojaoVqL7-40" value="Object" style="html=1;whiteSpace=wrap;" parent="1" vertex="1">
          <mxGeometry x="220" y="660" width="110" height="50" as="geometry" />
        </mxCell>
        <mxCell id="hI0eASJu8NWuojaoVqL7-42" value="&lt;span style=&quot;color: rgb(0, 0, 0); font-family: Helvetica; font-size: 12px; font-style: normal; font-variant-ligatures: normal; font-variant-caps: normal; font-weight: 400; letter-spacing: normal; orphans: 2; text-align: center; text-indent: 0px; text-transform: none; widows: 2; word-spacing: 0px; -webkit-text-stroke-width: 0px; background-color: rgb(251, 251, 251); text-decoration-thickness: initial; text-decoration-style: initial; text-decoration-color: initial; float: none; display: inline !important;&quot;&gt;ObjList&lt;/span&gt;" style="text;whiteSpace=wrap;html=1;" parent="1" vertex="1">
          <mxGeometry x="255" y="630" width="40" height="20" as="geometry" />
        </mxCell>
        <mxCell id="hI0eASJu8NWuojaoVqL7-44" value="tail" style="html=1;whiteSpace=wrap;" parent="1" vertex="1">
          <mxGeometry x="410" y="660" width="110" height="50" as="geometry" />
        </mxCell>
        <mxCell id="hI0eASJu8NWuojaoVqL7-48" value="1" style="text;html=1;align=center;verticalAlign=middle;resizable=0;points=[];autosize=1;strokeColor=#6c8ebf;fillColor=#dae8fc;strokeWidth=2;fontSize=18;fontStyle=1;" parent="1" vertex="1">
          <mxGeometry x="355" y="320" width="30" height="40" as="geometry" />
        </mxCell>
        <mxCell id="hI0eASJu8NWuojaoVqL7-49" value="2" style="text;html=1;align=center;verticalAlign=middle;resizable=0;points=[];autosize=1;strokeColor=#6c8ebf;fillColor=#dae8fc;strokeWidth=2;fontSize=18;fontStyle=1;" parent="1" vertex="1">
          <mxGeometry x="355" y="580" width="30" height="40" as="geometry" />
        </mxCell>
        <mxCell id="hI0eASJu8NWuojaoVqL7-53" value="3" style="text;html=1;align=center;verticalAlign=middle;resizable=0;points=[];autosize=1;strokeColor=#6c8ebf;fillColor=#dae8fc;strokeWidth=2;fontSize=18;fontStyle=1;" parent="1" vertex="1">
          <mxGeometry x="355" y="840" width="30" height="40" as="geometry" />
        </mxCell>
        <mxCell id="hI0eASJu8NWuojaoVqL7-62" value="" style="shape=umlDestroy;whiteSpace=wrap;html=1;strokeWidth=3;targetShapes=umlLifeline;" parent="1" vertex="1">
          <mxGeometry x="425" y="426" width="80" height="70" as="geometry" />
        </mxCell>
        <mxCell id="hI0eASJu8NWuojaoVqL7-63" style="edgeStyle=orthogonalEdgeStyle;rounded=0;orthogonalLoop=1;jettySize=auto;html=1;entryX=0.5;entryY=0;entryDx=0;entryDy=0;" parent="1" source="hI0eASJu8NWuojaoVqL7-20" target="hI0eASJu8NWuojaoVqL7-44" edge="1">
          <mxGeometry relative="1" as="geometry">
            <Array as="points">
              <mxPoint x="465" y="600" />
              <mxPoint x="465" y="600" />
            </Array>
          </mxGeometry>
        </mxCell>
        <mxCell id="hI0eASJu8NWuojaoVqL7-64" value="" style="shape=waypoint;sketch=0;size=6;pointerEvents=1;points=[];fillColor=none;resizable=0;rotatable=0;perimeter=centerPerimeter;snapToPoint=1;" parent="1" vertex="1">
          <mxGeometry x="455" y="476" width="20" height="20" as="geometry" />
        </mxCell>
        <mxCell id="hI0eASJu8NWuojaoVqL7-65" value="" style="shape=waypoint;sketch=0;size=6;pointerEvents=1;points=[];fillColor=none;resizable=0;rotatable=0;perimeter=centerPerimeter;snapToPoint=1;" parent="1" vertex="1">
          <mxGeometry x="355" y="415" width="20" height="20" as="geometry" />
        </mxCell>
        <mxCell id="hI0eASJu8NWuojaoVqL7-66" value="" style="shape=waypoint;sketch=0;size=6;pointerEvents=1;points=[];fillColor=none;resizable=0;rotatable=0;perimeter=centerPerimeter;snapToPoint=1;" parent="1" vertex="1">
          <mxGeometry x="320" y="675" width="20" height="20" as="geometry" />
        </mxCell>
        <mxCell id="hI0eASJu8NWuojaoVqL7-67" style="edgeStyle=orthogonalEdgeStyle;rounded=0;orthogonalLoop=1;jettySize=auto;html=1;entryX=0;entryY=0.5;entryDx=0;entryDy=0;" parent="1" source="hI0eASJu8NWuojaoVqL7-68" target="hI0eASJu8NWuojaoVqL7-70" edge="1">
          <mxGeometry relative="1" as="geometry" />
        </mxCell>
        <mxCell id="hI0eASJu8NWuojaoVqL7-68" value="Object" style="html=1;whiteSpace=wrap;" parent="1" vertex="1">
          <mxGeometry x="220" y="920" width="110" height="50" as="geometry" />
        </mxCell>
        <mxCell id="hI0eASJu8NWuojaoVqL7-69" value="&lt;span style=&quot;color: rgb(0, 0, 0); font-family: Helvetica; font-size: 12px; font-style: normal; font-variant-ligatures: normal; font-variant-caps: normal; font-weight: 400; letter-spacing: normal; orphans: 2; text-align: center; text-indent: 0px; text-transform: none; widows: 2; word-spacing: 0px; -webkit-text-stroke-width: 0px; background-color: rgb(251, 251, 251); text-decoration-thickness: initial; text-decoration-style: initial; text-decoration-color: initial; float: none; display: inline !important;&quot;&gt;ObjList&lt;/span&gt;" style="text;whiteSpace=wrap;html=1;" parent="1" vertex="1">
          <mxGeometry x="255" y="890" width="40" height="20" as="geometry" />
        </mxCell>
        <mxCell id="hI0eASJu8NWuojaoVqL7-70" value="tail" style="html=1;whiteSpace=wrap;" parent="1" vertex="1">
          <mxGeometry x="410" y="920" width="110" height="50" as="geometry" />
        </mxCell>
        <mxCell id="hI0eASJu8NWuojaoVqL7-72" value="" style="shape=waypoint;sketch=0;size=6;pointerEvents=1;points=[];fillColor=none;resizable=0;rotatable=0;perimeter=centerPerimeter;snapToPoint=1;" parent="1" vertex="1">
          <mxGeometry x="455" y="700" width="20" height="20" as="geometry" />
        </mxCell>
        <mxCell id="hI0eASJu8NWuojaoVqL7-71" style="edgeStyle=orthogonalEdgeStyle;rounded=0;orthogonalLoop=1;jettySize=auto;html=1;entryX=0.5;entryY=0;entryDx=0;entryDy=0;" parent="1" source="hI0eASJu8NWuojaoVqL7-72" target="hI0eASJu8NWuojaoVqL7-70" edge="1">
          <mxGeometry relative="1" as="geometry" />
        </mxCell>
        <mxCell id="hI0eASJu8NWuojaoVqL7-76" value="" style="shape=umlDestroy;whiteSpace=wrap;html=1;strokeWidth=3;targetShapes=umlLifeline;" parent="1" vertex="1">
          <mxGeometry x="420" y="650" width="90" height="70" as="geometry" />
        </mxCell>
        <mxCell id="vlka1ojqAnlAdmUGzbk--1" value="If obj is head and obj is tail:&lt;br&gt;&lt;span style=&quot;white-space: pre;&quot;&gt;&#x9;&lt;/span&gt;obj.next" style="html=1;dropTarget=0;whiteSpace=wrap;align=left;" parent="1" vertex="1">
          <mxGeometry x="600" y="400" width="180" height="90" as="geometry" />
        </mxCell>
        <mxCell id="vlka1ojqAnlAdmUGzbk--2" value="" style="shape=module;jettyWidth=8;jettyHeight=4;" parent="vlka1ojqAnlAdmUGzbk--1" vertex="1">
          <mxGeometry x="1" width="20" height="20" relative="1" as="geometry">
            <mxPoint x="-27" y="7" as="offset" />
          </mxGeometry>
        </mxCell>
        <mxCell id="vlka1ojqAnlAdmUGzbk--3" value="if obj is tail and obj is not head:&lt;br&gt;&lt;span style=&quot;white-space: pre;&quot;&gt;&#x9;&lt;/span&gt;obj.next = None&lt;br&gt;&lt;span style=&quot;white-space: pre;&quot;&gt;&#x9;&lt;/span&gt;obj.prev.next = obj" style="html=1;dropTarget=0;whiteSpace=wrap;align=left;" parent="1" vertex="1">
          <mxGeometry x="600" y="640" width="180" height="90" as="geometry" />
        </mxCell>
        <mxCell id="vlka1ojqAnlAdmUGzbk--4" value="" style="shape=module;jettyWidth=8;jettyHeight=4;" parent="vlka1ojqAnlAdmUGzbk--3" vertex="1">
          <mxGeometry x="1" width="20" height="20" relative="1" as="geometry">
            <mxPoint x="-27" y="7" as="offset" />
          </mxGeometry>
        </mxCell>
        <mxCell id="vlka1ojqAnlAdmUGzbk--5" value="if obj is tail and obj is not head:&lt;br&gt;&lt;span style=&quot;white-space: pre;&quot;&gt;&#x9;&lt;/span&gt;obj.next = None&lt;br&gt;&lt;span style=&quot;white-space: pre;&quot;&gt;&#x9;&lt;/span&gt;obj.prev.next = obj" style="html=1;dropTarget=0;whiteSpace=wrap;align=left;" parent="1" vertex="1">
          <mxGeometry x="600" y="900" width="180" height="90" as="geometry" />
        </mxCell>
        <mxCell id="vlka1ojqAnlAdmUGzbk--6" value="" style="shape=module;jettyWidth=8;jettyHeight=4;" parent="vlka1ojqAnlAdmUGzbk--5" vertex="1">
          <mxGeometry x="1" width="20" height="20" relative="1" as="geometry">
            <mxPoint x="-27" y="7" as="offset" />
          </mxGeometry>
        </mxCell>
      </root>
    </mxGraphModel>
  </diagram>
  <diagram id="eBLcqqiAvHWIHdHW21XW" name="Страница — 2">
    <mxGraphModel dx="875" dy="532" grid="1" gridSize="10" guides="1" tooltips="1" connect="1" arrows="1" fold="1" page="1" pageScale="1" pageWidth="2339" pageHeight="3300" math="0" shadow="0">
      <root>
        <mxCell id="0" />
        <mxCell id="1" parent="0" />
        <mxCell id="1rBWqmcejsyS6ylF5ItC-74" value="StackObj" style="swimlane;fontStyle=1;align=center;verticalAlign=top;childLayout=stackLayout;horizontal=1;startSize=26;horizontalStack=0;resizeParent=1;resizeParentMax=0;resizeLast=0;collapsible=1;marginBottom=0;whiteSpace=wrap;html=1;" vertex="1" parent="1">
          <mxGeometry x="520" y="480" width="160" height="138" as="geometry" />
        </mxCell>
        <mxCell id="1rBWqmcejsyS6ylF5ItC-75" value="__data" style="text;strokeColor=none;fillColor=none;align=left;verticalAlign=top;spacingLeft=4;spacingRight=4;overflow=hidden;rotatable=0;points=[[0,0.5],[1,0.5]];portConstraint=eastwest;whiteSpace=wrap;html=1;" vertex="1" parent="1rBWqmcejsyS6ylF5ItC-74">
          <mxGeometry y="26" width="160" height="26" as="geometry" />
        </mxCell>
        <mxCell id="1rBWqmcejsyS6ylF5ItC-78" value="__next" style="text;strokeColor=none;fillColor=none;align=left;verticalAlign=top;spacingLeft=4;spacingRight=4;overflow=hidden;rotatable=0;points=[[0,0.5],[1,0.5]];portConstraint=eastwest;whiteSpace=wrap;html=1;" vertex="1" parent="1rBWqmcejsyS6ylF5ItC-74">
          <mxGeometry y="52" width="160" height="26" as="geometry" />
        </mxCell>
        <mxCell id="1rBWqmcejsyS6ylF5ItC-76" value="" style="line;strokeWidth=1;fillColor=none;align=left;verticalAlign=middle;spacingTop=-1;spacingLeft=3;spacingRight=3;rotatable=0;labelPosition=right;points=[];portConstraint=eastwest;strokeColor=inherit;" vertex="1" parent="1rBWqmcejsyS6ylF5ItC-74">
          <mxGeometry y="78" width="160" height="8" as="geometry" />
        </mxCell>
        <mxCell id="1rBWqmcejsyS6ylF5ItC-89" style="edgeStyle=orthogonalEdgeStyle;rounded=0;orthogonalLoop=1;jettySize=auto;html=1;entryX=0;entryY=0.5;entryDx=0;entryDy=0;" edge="1" parent="1rBWqmcejsyS6ylF5ItC-74" source="1rBWqmcejsyS6ylF5ItC-77" target="1rBWqmcejsyS6ylF5ItC-78">
          <mxGeometry relative="1" as="geometry" />
        </mxCell>
        <mxCell id="1rBWqmcejsyS6ylF5ItC-77" value="&lt;u&gt;@prop next()&lt;/u&gt;" style="text;strokeColor=none;fillColor=none;align=left;verticalAlign=top;spacingLeft=4;spacingRight=4;overflow=hidden;rotatable=0;points=[[0,0.5],[1,0.5]];portConstraint=eastwest;whiteSpace=wrap;html=1;" vertex="1" parent="1rBWqmcejsyS6ylF5ItC-74">
          <mxGeometry y="86" width="160" height="26" as="geometry" />
        </mxCell>
        <mxCell id="1rBWqmcejsyS6ylF5ItC-90" style="edgeStyle=orthogonalEdgeStyle;rounded=0;orthogonalLoop=1;jettySize=auto;html=1;entryX=0;entryY=0.5;entryDx=0;entryDy=0;" edge="1" parent="1rBWqmcejsyS6ylF5ItC-74" source="1rBWqmcejsyS6ylF5ItC-80" target="1rBWqmcejsyS6ylF5ItC-75">
          <mxGeometry relative="1" as="geometry">
            <Array as="points">
              <mxPoint x="-30" y="125" />
              <mxPoint x="-30" y="39" />
            </Array>
          </mxGeometry>
        </mxCell>
        <mxCell id="1rBWqmcejsyS6ylF5ItC-80" value="&lt;u style=&quot;border-color: var(--border-color);&quot;&gt;@prop&amp;nbsp;&lt;/u&gt;&lt;u&gt;data()&lt;/u&gt;" style="text;strokeColor=none;fillColor=none;align=left;verticalAlign=top;spacingLeft=4;spacingRight=4;overflow=hidden;rotatable=0;points=[[0,0.5],[1,0.5]];portConstraint=eastwest;whiteSpace=wrap;html=1;" vertex="1" parent="1rBWqmcejsyS6ylF5ItC-74">
          <mxGeometry y="112" width="160" height="26" as="geometry" />
        </mxCell>
        <mxCell id="1rBWqmcejsyS6ylF5ItC-81" value="Stack" style="swimlane;fontStyle=1;align=center;verticalAlign=top;childLayout=stackLayout;horizontal=1;startSize=26;horizontalStack=0;resizeParent=1;resizeParentMax=0;resizeLast=0;collapsible=1;marginBottom=0;whiteSpace=wrap;html=1;" vertex="1" parent="1">
          <mxGeometry x="520" y="120" width="160" height="138" as="geometry" />
        </mxCell>
        <mxCell id="1rBWqmcejsyS6ylF5ItC-84" value="top&amp;nbsp;" style="text;strokeColor=none;fillColor=none;align=left;verticalAlign=top;spacingLeft=4;spacingRight=4;overflow=hidden;rotatable=0;points=[[0,0.5],[1,0.5]];portConstraint=eastwest;whiteSpace=wrap;html=1;" vertex="1" parent="1rBWqmcejsyS6ylF5ItC-81">
          <mxGeometry y="26" width="160" height="26" as="geometry" />
        </mxCell>
        <mxCell id="1rBWqmcejsyS6ylF5ItC-85" value="" style="line;strokeWidth=1;fillColor=none;align=left;verticalAlign=middle;spacingTop=-1;spacingLeft=3;spacingRight=3;rotatable=0;labelPosition=right;points=[];portConstraint=eastwest;strokeColor=inherit;" vertex="1" parent="1rBWqmcejsyS6ylF5ItC-81">
          <mxGeometry y="52" width="160" height="8" as="geometry" />
        </mxCell>
        <mxCell id="1rBWqmcejsyS6ylF5ItC-86" value="&lt;u&gt;push(self, obj)&lt;/u&gt;" style="text;strokeColor=none;fillColor=none;align=left;verticalAlign=top;spacingLeft=4;spacingRight=4;overflow=hidden;rotatable=0;points=[[0,0.5],[1,0.5]];portConstraint=eastwest;whiteSpace=wrap;html=1;" vertex="1" parent="1rBWqmcejsyS6ylF5ItC-81">
          <mxGeometry y="60" width="160" height="26" as="geometry" />
        </mxCell>
        <mxCell id="1rBWqmcejsyS6ylF5ItC-87" value="&lt;u&gt;pop(self)&lt;/u&gt;" style="text;strokeColor=none;fillColor=none;align=left;verticalAlign=top;spacingLeft=4;spacingRight=4;overflow=hidden;rotatable=0;points=[[0,0.5],[1,0.5]];portConstraint=eastwest;whiteSpace=wrap;html=1;" vertex="1" parent="1rBWqmcejsyS6ylF5ItC-81">
          <mxGeometry y="86" width="160" height="26" as="geometry" />
        </mxCell>
        <mxCell id="1rBWqmcejsyS6ylF5ItC-88" value="&lt;u&gt;get_data(self)&lt;/u&gt;" style="text;strokeColor=none;fillColor=none;align=left;verticalAlign=top;spacingLeft=4;spacingRight=4;overflow=hidden;rotatable=0;points=[[0,0.5],[1,0.5]];portConstraint=eastwest;whiteSpace=wrap;html=1;" vertex="1" parent="1rBWqmcejsyS6ylF5ItC-81">
          <mxGeometry y="112" width="160" height="26" as="geometry" />
        </mxCell>
        <mxCell id="1rBWqmcejsyS6ylF5ItC-91" value="top&lt;br&gt;&lt;br&gt;&amp;lt;first StackObj&amp;gt; or None" style="html=1;dropTarget=0;whiteSpace=wrap;align=left;spacingTop=0;spacingLeft=6;" vertex="1" parent="1">
          <mxGeometry x="730" y="20" width="180" height="90" as="geometry" />
        </mxCell>
        <mxCell id="1rBWqmcejsyS6ylF5ItC-92" value="" style="shape=module;jettyWidth=8;jettyHeight=4;" vertex="1" parent="1rBWqmcejsyS6ylF5ItC-91">
          <mxGeometry x="1" width="20" height="20" relative="1" as="geometry">
            <mxPoint x="-27" y="7" as="offset" />
          </mxGeometry>
        </mxCell>
        <mxCell id="1rBWqmcejsyS6ylF5ItC-93" style="edgeStyle=orthogonalEdgeStyle;rounded=0;orthogonalLoop=1;jettySize=auto;html=1;entryX=0;entryY=0.5;entryDx=0;entryDy=0;" edge="1" parent="1" source="1rBWqmcejsyS6ylF5ItC-84" target="1rBWqmcejsyS6ylF5ItC-91">
          <mxGeometry relative="1" as="geometry" />
        </mxCell>
        <mxCell id="1rBWqmcejsyS6ylF5ItC-94" value="" style="rounded=1;whiteSpace=wrap;html=1;strokeWidth=2;fillWeight=4;hachureGap=8;hachureAngle=45;fillColor=#1ba1e2;sketch=1;" vertex="1" parent="1">
          <mxGeometry x="720" y="400" width="120" height="60" as="geometry" />
        </mxCell>
        <mxCell id="1rBWqmcejsyS6ylF5ItC-95" style="edgeStyle=orthogonalEdgeStyle;rounded=0;orthogonalLoop=1;jettySize=auto;html=1;" edge="1" parent="1" source="1rBWqmcejsyS6ylF5ItC-75" target="1rBWqmcejsyS6ylF5ItC-94">
          <mxGeometry relative="1" as="geometry" />
        </mxCell>
        <mxCell id="1rBWqmcejsyS6ylF5ItC-96" value="Data" style="text;align=center;fontStyle=1;verticalAlign=middle;spacingLeft=3;spacingRight=3;strokeColor=#6c8ebf;rotatable=0;points=[[0,0.5],[1,0.5]];portConstraint=eastwest;html=1;fillColor=#dae8fc;" vertex="1" parent="1">
          <mxGeometry x="740" y="417" width="80" height="26" as="geometry" />
        </mxCell>
        <mxCell id="1rBWqmcejsyS6ylF5ItC-99" value="__next&lt;br&gt;&lt;br&gt;link to &amp;lt;next StackObj&amp;gt; or None" style="html=1;dropTarget=0;whiteSpace=wrap;align=left;spacingLeft=4;" vertex="1" parent="1">
          <mxGeometry x="810" y="500" width="180" height="90" as="geometry" />
        </mxCell>
        <mxCell id="1rBWqmcejsyS6ylF5ItC-100" value="" style="shape=module;jettyWidth=8;jettyHeight=4;" vertex="1" parent="1rBWqmcejsyS6ylF5ItC-99">
          <mxGeometry x="1" width="20" height="20" relative="1" as="geometry">
            <mxPoint x="-27" y="7" as="offset" />
          </mxGeometry>
        </mxCell>
        <mxCell id="1rBWqmcejsyS6ylF5ItC-101" style="edgeStyle=orthogonalEdgeStyle;rounded=0;orthogonalLoop=1;jettySize=auto;html=1;entryX=0;entryY=0.5;entryDx=0;entryDy=0;" edge="1" parent="1" source="1rBWqmcejsyS6ylF5ItC-78" target="1rBWqmcejsyS6ylF5ItC-99">
          <mxGeometry relative="1" as="geometry" />
        </mxCell>
        <mxCell id="1rBWqmcejsyS6ylF5ItC-102" value="&lt;u style=&quot;border-color: var(--border-color);&quot;&gt;push(self, obj)&lt;br&gt;&lt;/u&gt;&lt;br&gt;self.next = obj" style="html=1;dropTarget=0;whiteSpace=wrap;align=left;spacingTop=0;spacingLeft=6;" vertex="1" parent="1">
          <mxGeometry x="770" y="148" width="180" height="90" as="geometry" />
        </mxCell>
        <mxCell id="1rBWqmcejsyS6ylF5ItC-103" value="" style="shape=module;jettyWidth=8;jettyHeight=4;" vertex="1" parent="1rBWqmcejsyS6ylF5ItC-102">
          <mxGeometry x="1" width="20" height="20" relative="1" as="geometry">
            <mxPoint x="-27" y="7" as="offset" />
          </mxGeometry>
        </mxCell>
        <mxCell id="1rBWqmcejsyS6ylF5ItC-104" style="edgeStyle=orthogonalEdgeStyle;rounded=0;orthogonalLoop=1;jettySize=auto;html=1;entryX=0;entryY=0.5;entryDx=0;entryDy=0;" edge="1" parent="1" source="1rBWqmcejsyS6ylF5ItC-86" target="1rBWqmcejsyS6ylF5ItC-102">
          <mxGeometry relative="1" as="geometry" />
        </mxCell>
        <mxCell id="1rBWqmcejsyS6ylF5ItC-105" value="&lt;u style=&quot;border-color: var(--border-color);&quot;&gt;pop(self)&lt;br&gt;&lt;br&gt;&lt;/u&gt;obj = self.next&lt;br&gt;self.next = None&lt;br&gt;return obj" style="html=1;dropTarget=0;whiteSpace=wrap;align=left;spacingTop=0;spacingLeft=6;" vertex="1" parent="1">
          <mxGeometry x="270" y="174" width="180" height="90" as="geometry" />
        </mxCell>
        <mxCell id="1rBWqmcejsyS6ylF5ItC-106" value="" style="shape=module;jettyWidth=8;jettyHeight=4;" vertex="1" parent="1rBWqmcejsyS6ylF5ItC-105">
          <mxGeometry x="1" width="20" height="20" relative="1" as="geometry">
            <mxPoint x="-27" y="7" as="offset" />
          </mxGeometry>
        </mxCell>
        <mxCell id="1rBWqmcejsyS6ylF5ItC-107" style="edgeStyle=orthogonalEdgeStyle;rounded=0;orthogonalLoop=1;jettySize=auto;html=1;entryX=1;entryY=0.5;entryDx=0;entryDy=0;" edge="1" parent="1" source="1rBWqmcejsyS6ylF5ItC-87" target="1rBWqmcejsyS6ylF5ItC-105">
          <mxGeometry relative="1" as="geometry" />
        </mxCell>
        <mxCell id="1rBWqmcejsyS6ylF5ItC-109" value="&lt;span style=&quot;border-color: var(--border-color);&quot;&gt;&lt;u style=&quot;text-decoration-line: underline; border-color: var(--border-color);&quot;&gt;get_data(self)&lt;/u&gt;&lt;br&gt;&lt;br&gt;return list(data)&lt;br&gt;&lt;/span&gt;" style="html=1;dropTarget=0;whiteSpace=wrap;align=left;spacingTop=0;spacingLeft=6;" vertex="1" parent="1">
          <mxGeometry x="270" y="310" width="180" height="90" as="geometry" />
        </mxCell>
        <mxCell id="1rBWqmcejsyS6ylF5ItC-110" value="" style="shape=module;jettyWidth=8;jettyHeight=4;" vertex="1" parent="1rBWqmcejsyS6ylF5ItC-109">
          <mxGeometry x="1" width="20" height="20" relative="1" as="geometry">
            <mxPoint x="-27" y="7" as="offset" />
          </mxGeometry>
        </mxCell>
        <mxCell id="1rBWqmcejsyS6ylF5ItC-111" style="edgeStyle=orthogonalEdgeStyle;rounded=0;orthogonalLoop=1;jettySize=auto;html=1;entryX=1;entryY=0.5;entryDx=0;entryDy=0;" edge="1" parent="1" source="1rBWqmcejsyS6ylF5ItC-88" target="1rBWqmcejsyS6ylF5ItC-109">
          <mxGeometry relative="1" as="geometry" />
        </mxCell>
      </root>
    </mxGraphModel>
  </diagram>
</mxfile>
